<svg width="1200" height="300" viewBox="0 0 1200 300" fill="none" xmlns="http://www.w3.org/2000/svg" role="img" aria-label="Prathamesh Deshmukh — Research Data Scientist">
  <defs>
    <linearGradient id="bgGrad" x1="0" y1="0" x2="1200" y2="300" gradientUnits="userSpaceOnUse">
      <stop stop-color="#0a1622"/>
      <stop offset="0.5" stop-color="#0d1f2a"/>
      <stop offset="1" stop-color="#0a1f18"/>
    </linearGradient>
    <linearGradient id="accGrad" x1="0" y1="0" x2="1" y2="0">
      <stop stop-color="#34d399"/>
      <stop offset="1" stop-color="#10b981"/>
    </linearGradient>
    <linearGradient id="goldGrad" x1="0" y1="0" x2="1" y2="0">
      <stop stop-color="#fde68a"/>
      <stop offset="1" stop-color="#fbbf24"/>
    </linearGradient>
    <radialGradient id="glowGrad" cx="0" cy="0" r="1" gradientUnits="userSpaceOnUse" gradientTransform="translate(920 150) rotate(90) scale(260)">
      <stop stop-color="#10b981" stop-opacity="0.20"/>
      <stop offset="1" stop-color="#10b981" stop-opacity="0"/>
    </radialGradient>
    <pattern id="pixelGrid" width="20" height="20" patternUnits="userSpaceOnUse">
      <circle cx="2" cy="2" r="1.2" fill="#34d399" opacity="0.06"/>
    </pattern>
  </defs>

  <!-- Base layers -->
  <rect width="1200" height="300" fill="url(#bgGrad)"/>/>
  <rect width="1200" height="300" fill="url(#pixelGrid)"/>/>
  <rect width="1200" height="300" fill="url(#glowGrad)"/>/>

  <!-- Floating particles -->
  <g>
    <circle cx="180" cy="50" r="2" fill="#34d399" opacity="0.4">
      <animate attributeName="cy" values="50;40;55;50" dur="6s" repeatCount="indefinite"/>
      <animate attributeName="opacity" values="0.4;0.8;0.2;0.4" dur="4s" repeatCount="indefinite"/>
    </circle>
    <circle cx="320" cy="40" r="1.5" fill="#34d399" opacity="0.3">
      <animate attributeName="cy" values="40;30;45;40" dur="5s" repeatCount="indefinite"/>
    </circle>
    <circle cx="150" cy="260" r="1.8" fill="#fbbf24" opacity="0.3">
      <animate attributeName="cy" values="260;250;265;260" dur="7s" repeatCount="indefinite"/>
    </circle>
    <circle cx="400" cy="270" r="1.5" fill="#34d399" opacity="0.25">
      <animate attributeName="cy" values="270;260;275;270" dur="4.5s" repeatCount="indefinite"/>
    </circle>
    <circle cx="1080" cy="60" r="2" fill="#34d399" opacity="0.3">
      <animate attributeName="cy" values="60;50;65;60" dur="8s" repeatCount="indefinite"/>
    </circle>
    <circle cx="1150" cy="240" r="1.5" fill="#fbbf24" opacity="0.25">
      <animate attributeName="cy" values="240;230;245;240" dur="5.5s" repeatCount="indefinite"/>
    </circle>
  </g>

  <!-- Pixel Bar Chart -->
  <g transform="translate(55 160)">
    <line x1="0" y1="0" x2="0" y2="-95" stroke="#1d3846" stroke-width="2"/>
    <line x1="0" y1="0" x2="130" y2="0" stroke="#1d3846" stroke-width="2"/>
    <rect x="8" y="0" width="16" fill="#34d399" opacity="0.9" rx="1">
      <animate attributeName="y" values="-95;0;-95" dur="2s" repeatCount="indefinite" keyTimes="0;0.5;1" calcMode="spline" keySplines="0.34 1.56 0.64 1;0.34 0.4 0.64 1"/>
      <animate attributeName="height" values="95;0;95" dur="2s" repeatCount="indefinite" keyTimes="0;0.5;1" calcMode="spline" keySplines="0.34 1.56 0.64 1;0.34 0.4 0.64 1"/>
    </rect>
    <rect x="8" y="-90" width="16" height="10" fill="#10b981" rx="1" opacity="0.3">
      <animate attributeName="opacity" values="0.3;0.7;0.3" dur="1.5s" repeatCount="indefinite"/>
    </rect>
    <rect x="32" y="0" width="16" fill="#34d399" opacity="0.85" rx="1">
      <animate attributeName="y" values="-65;0;-65" dur="2s" begin="0.3s" repeatCount="indefinite" keyTimes="0;0.5;1" calcMode="spline" keySplines="0.34 1.56 0.64 1;0.34 0.4 0.64 1"/>
      <animate attributeName="height" values="65;0;65" dur="2s" begin="0.3s" repeatCount="indefinite" keyTimes="0;0.5;1" calcMode="spline" keySplines="0.34 1.56 0.64 1;0.34 0.4 0.64 1"/>
    </rect>
    <rect x="56" y="0" width="16" fill="#34d399" opacity="0.8" rx="1">
      <animate attributeName="y" values="-45;0;-45" dur="2s" begin="0.6s" repeatCount="indefinite" keyTimes="0;0.5;1" calcMode="spline" keySplines="0.34 1.56 0.64 1;0.34 0.4 0.64 1"/>
      <animate attributeName="height" values="45;0;45" dur="2s" begin="0.6s" repeatCount="indefinite" keyTimes="0;0.5;1" calcMode="spline" keySplines="0.34 1.56 0.64 1;0.34 0.4 0.64 1"/>
    </rect>
    <rect x="80" y="0" width="16" fill="#34d399" opacity="0.9" rx="1">
      <animate attributeName="y" values="-85;0;-85" dur="2s" begin="0.9s" repeatCount="indefinite" keyTimes="0;0.5;1" calcMode="spline" keySplines="0.34 1.56 0.64 1;0.34 0.4 0.64 1"/>
      <animate attributeName="height" values="85;0;85" dur="2s" begin="0.9s" repeatCount="indefinite" keyTimes="0;0.5;1" calcMode="spline" keySplines="0.34 1.56 0.64 1;0.34 0.4 0.64 1"/>
    </rect>
    <rect x="104" y="0" width="16" fill="#34d399" opacity="0.75" rx="1">
      <animate attributeName="y" values="-30;0;-30" dur="2s" begin="1.2s" repeatCount="indefinite" keyTimes="0;0.5;1" calcMode="spline" keySplines="0.34 1.56 0.64 1;0.34 0.4 0.64 1"/>
      <animate attributeName="height" values="30;0;30" dur="2s" begin="1.2s" repeatCount="indefinite" keyTimes="0;0.5;1" calcMode="spline" keySplines="0.34 1.56 0.64 1;0.34 0.4 0.64 1"/>
    </rect>
  </g>

  <!-- Pixel Scatter Plot -->
  <g transform="translate(55 210)">
    <line x1="0" y1="0" x2="130" y2="0" stroke="#1d3846" stroke-width="1.5"/>
    <line x1="0" y1="0" x2="0" y2="50" stroke="#1d3846" stroke-width="1.5"/>
    <line x1="0" y1="25" x2="130" y2="25" stroke="#1d3846" stroke-width="0.5" opacity="0.4"/>
    <line x1="65" y1="0" x2="65" y2="50" stroke="#1d3846" stroke-width="0.5" opacity="0.4"/>
    <rect x="10" y="10" width="4" height="4" fill="#34d399" rx="0.5">
      <animate attributeName="x" values="10;12;9;10" dur="3s" repeatCount="indefinite"/>
      <animate attributeName="y" values="10;8;11;10" dur="3.5s" repeatCount="indefinite"/>
    </rect>
    <rect x="30" y="25" width="4" height="4" fill="#34d399" rx="0.5">
      <animate attributeName="x" values="30;32;29;30" dur="4s" repeatCount="indefinite"/>
      <animate attributeName="y" values="25;23;26;25" dur="3s" repeatCount="indefinite"/>
    </rect>
    <rect x="55" y="5" width="4" height="4" fill="#fbbf24" rx="0.5">
      <animate attributeName="x" values="55;57;54;55" dur="3.2s" repeatCount="indefinite"/>
      <animate attributeName="y" values="5;3;6;5" dur="4.2s" repeatCount="indefinite"/>
    </rect>
    <rect x="75" y="35" width="4" height="4" fill="#34d399" rx="0.5">
      <animate attributeName="x" values="75;77;74;75" dur="2.8s" repeatCount="indefinite"/>
      <animate attributeName="y" values="35;33;36;35" dur="3.8s" repeatCount="indefinite"/>
    </rect>
    <rect x="100" y="18" width="4" height="4" fill="#34d399" rx="0.5">
      <animate attributeName="x" values="100;102;99;100" dur="3.6s" repeatCount="indefinite"/>
      <animate attributeName="y" values="18;16;19;18" dur="4.6s" repeatCount="indefinite"/>
    </rect>
    <rect x="118" y="40" width="4" height="4" fill="#fbbf24" rx="0.5">
      <animate attributeName="x" values="118;120;117;118" dur="3.4s" repeatCount="indefinite"/>
      <animate attributeName="y" values="40;38;41;40" dur="3.2s" repeatCount="indefinite"/>
    </rect>
  </g>

  <!-- Pixel Matrix Rain -->
  <g opacity="0.15">
    <text x="1020" y="0" font-family="monospace" font-size="10" fill="#34d399">1<animate attributeName="y" values="0;300" dur="8s" repeatCount="indefinite"/></text>
    <text x="1040" y="-30" font-family="monospace" font-size="10" fill="#34d399">0<animate attributeName="y" values="-30;270" dur="9s" repeatCount="indefinite"/></text>
    <text x="1060" y="-60" font-family="monospace" font-size="10" fill="#34d399">1<animate attributeName="y" values="-60;240" dur="7s" repeatCount="indefinite"/></text>
    <text x="1080" y="-15" font-family="monospace" font-size="10" fill="#34d399">0<animate attributeName="y" values="-15;285" dur="11s" repeatCount="indefinite"/></text>
    <text x="1100" y="-45" font-family="monospace" font-size="10" fill="#34d399">1<animate attributeName="y" values="-45;255" dur="8.5s" repeatCount="indefinite"/></text>
    <text x="1120" y="-10" font-family="monospace" font-size="10" fill="#34d399">0<animate attributeName="y" values="-10;290" dur="10s" repeatCount="indefinite"/></text>
    <text x="1140" y="-50" font-family="monospace" font-size="10" fill="#34d399">1<animate attributeName="y" values="-50;250" dur="9.5s" repeatCount="indefinite"/></text>
    <text x="1160" y="-20" font-family="monospace" font-size="10" fill="#34d399">0<animate attributeName="y" values="-20;280" dur="7.5s" repeatCount="indefinite"/></text>
  </g>

  <!-- Logo Mark -->
  <g transform="translate(60 65)">
    <rect x="0" y="32" width="8" height="32" rx="1" fill="#34d399" opacity="0.5"/>
    <rect x="12" y="18" width="8" height="46" rx="1" fill="#34d399" opacity="0.78"/>
    <rect x="24" y="4" width="8" height="60" rx="1" fill="#34d399"/>
    <rect x="36" y="25" width="8" height="39" rx="1" fill="#34d399" opacity="0.65"/>
    <rect x="48" y="10" width="8" height="54" rx="1" fill="#34d399" opacity="0.9"/>
    <rect x="27" y="0" width="6" height="4" rx="1" fill="#fbbf24">
      <animate attributeName="opacity" values="1;0.3;1" dur="1.5s" repeatCount="indefinite"/>
    </rect>
  </g>

  <!-- Name -->
  <text x="220" y="112" font-family="ui-sans-serif, system-ui, -apple-system, Segoe UI, Helvetica, Arial, sans-serif" font-size="34" font-weight="700" letter-spacing="1.5" fill="#f0f6fc">PRATHAMESH</text>
  <text x="220" y="148" font-family="ui-sans-serif, system-ui, -apple-system, Segoe UI, Helvetica, Arial, sans-serif" font-size="34" font-weight="700" letter-spacing="1.5" fill="#f0f6fc">DESHMUKH</text>

  <!-- Animated cursor -->
  <rect x="484" y="110" width="3" height="33" rx="1" fill="#34d399">
    <animate attributeName="opacity" values="1;0;1" dur="1s" repeatCount="indefinite"/>
  </rect>

  <!-- Title -->
  <text x="220" y="192" font-family="ui-sans-serif, system-ui, -apple-system, Segoe UI, Helvetica, Arial, sans-serif" font-size="24" font-weight="600" fill="url(#accGrad)" letter-spacing="0.5">Research Data Scientist</text>

  <!-- Animated underline -->
  <rect x="220" y="202" width="240" height="4" rx="2" fill="url(#goldGrad)">
    <animate attributeName="width" values="0;240;240;0" dur="4s" repeatCount="indefinite" keyTimes="0;0.25;0.75;1"/>
  </rect>

  <!-- Tagline -->
  <text x="220" y="240" font-family="ui-sans-serif, system-ui, -apple-system, Segoe UI, Helvetica, Arial, sans-serif" font-size="15" fill="#8b949e">R  ·  Statistics  ·  Plant-Breeding Analytics  ·  Reproducible Research</text>

  <!-- Pixel decorations -->
  <g transform="translate(220 258)">
    <rect x="0" y="0" width="6" height="6" rx="1" fill="#34d399" opacity="0.4">
      <animate attributeName="opacity" values="0.4;0.9;0.4" dur="2s" repeatCount="indefinite"/>
    </rect>
    <rect x="12" y="0" width="6" height="6" rx="1" fill="#34d399" opacity="0.3">
      <animate attributeName="opacity" values="0.3;0.8;0.3" dur="2.3s" repeatCount="indefinite"/>
    </rect>
    <rect x="24" y="0" width="6" height="6" rx="1" fill="#fbbf24" opacity="0.35">
      <animate attributeName="opacity" values="0.35;0.85;0.35" dur="1.8s" repeatCount="indefinite"/>
    </rect>
    <rect x="36" y="0" width="6" height="6" rx="1" fill="#34d399" opacity="0.25">
      <animate attributeName="opacity" values="0.25;0.7;0.25" dur="2.6s" repeatCount="indefinite"/>
    </rect>
    <rect x="48" y="0" width="6" height="6" rx="1" fill="#34d399" opacity="0.35">
      <animate attributeName="opacity" values="0.35;0.75;0.35" dur="1.9s" repeatCount="indefinite"/>
    </rect>
  </g>

  <!-- Right Panel - Line Chart -->
  <g transform="translate(800 60)">
    <rect x="0" y="0" width="180" height="100" rx="6" fill="#0d1f2a" stroke="#1d3846" stroke-width="1" opacity="0.8"/>
    <text x="12" y="18" font-family="monospace" font-size="8" fill="#8b949e"># data/scores.csv</text>
    <line x1="15" y1="82" x2="168" y2="82" stroke="#1d3846" stroke-width="1"/>
    <line x1="15" y1="15" x2="15" y2="82" stroke="#1d3846" stroke-width="1"/>
    <polyline points="15,75 35,70 55,60 75,65 95,45 115,30 135,35 155,20 168,15" fill="none" stroke="#34d399" stroke-width="2.5" stroke-linejoin="round" stroke-linecap="round">
      <animate attributeName="stroke-dasharray" values="0,400;400,0" dur="2s" fill="freeze"/>
      <animate attributeName="stroke-dashoffset" values="400;0" dur="2s" fill="freeze"/>
    </polyline>
    <circle cx="35" cy="70" r="2.5" fill="#34d399">
      <animate attributeName="r" values="0;2.5" dur="2s" begin="0.4s" fill="freeze"/>
      <animate attributeName="opacity" values="1;0.5;1" dur="1.5s" begin="2s" repeatCount="indefinite"/>
    </circle>
    <circle cx="75" cy="65" r="2.5" fill="#34d399">
      <animate attributeName="r" values="0;2.5" dur="2s" begin="0.8s" fill="freeze"/>
    </circle>
    <circle cx="115" cy="30" r="2.5" fill="#fbbf24">
      <animate attributeName="r" values="0;2.5" dur="2s" begin="1.2s" fill="freeze"/>
    </circle>
    <circle cx="155" cy="20" r="2.5" fill="#34d399">
      <animate attributeName="r" values="0;2.5" dur="2s" begin="1.6s" fill="freeze"/>
    </circle>
    <text x="120" y="72" font-family="monospace" font-size="7" fill="#fbbf24" opacity="0.7">R² = 0.89</text>
  </g>

  <!-- Stats Cards -->
  <g transform="translate(800 185)">
    <rect x="0" y="0" width="56" height="74" rx="4" fill="#0d1f2a" stroke="#1d3846" stroke-width="0.8"/>
    <text x="8" y="14" font-family="monospace" font-size="7" fill="#8b949e">p-val</text>
    <text x="8" y="38" font-family="monospace" font-size="18" font-weight="700" fill="#34d399">0.03</text>
    <text x="8" y="54" font-family="monospace" font-size="7" fill="#8b949e">significant</text>
    <rect x="62" y="0" width="56" height="74" rx="4" fill="#0d1f2a" stroke="#1d3846" stroke-width="0.8"/>
    <text x="70" y="14" font-family="monospace" font-size="7" fill="#8b949e">CV%</text>
    <text x="70" y="38" font-family="monospace" font-size="18" font-weight="700" fill="#fbbf24">12.4</text>
    <text x="70" y="54" font-family="monospace" font-size="7" fill="#8b949e">low var</text>
    <rect x="124" y="0" width="56" height="74" rx="4" fill="#0d1f2a" stroke="#1d3846" stroke-width="0.8"/>
    <text x="132" y="14" font-family="monospace" font-size="7" fill="#8b949e">N</text>
    <text x="132" y="38" font-family="monospace" font-size="18" font-weight="700" fill="#34d399">100</text>
    <text x="132" y="54" font-family="monospace" font-size="7" fill="#8b949e">genotypes</text>
  </g>

  <!-- Heatmap Mini -->
  <g transform="translate(1000 190)">
    <text x="0" y="10" font-family="monospace" font-size="7" fill="#8b949e">correlation matrix</text>
    <rect x="0" y="16" width="10" height="10" rx="1" fill="#34d399" opacity="0.9"/>
    <rect x="12" y="16" width="10" height="10" rx="1" fill="#10b981" opacity="0.4"/>
    <rect x="24" y="16" width="10" height="10" rx="1" fill="#34d399" opacity="0.7"/>
    <rect x="36" y="16" width="10" height="10" rx="1" fill="#059669" opacity="0.3"/>
    <rect x="48" y="16" width="10" height="10" rx="1" fill="#34d399" opacity="0.6"/>
    <rect x="0" y="28" width="10" height="10" rx="1" fill="#10b981" opacity="0.4"/>
    <rect x="12" y="28" width="10" height="10" rx="1" fill="#34d399" opacity="0.9"/>
    <rect x="24" y="28" width="10" height="10" rx="1" fill="#10b981" opacity="0.5"/>
    <rect x="36" y="28" width="10" height="10" rx="1" fill="#34d399" opacity="0.8"/>
    <rect x="48" y="28" width="10" height="10" rx="1" fill="#059669" opacity="0.35"/>
    <rect x="0" y="40" width="10" height="10" rx="1" fill="#34d399" opacity="0.7"/>
    <rect x="12" y="40" width="10" height="10" rx="1" fill="#10b981" opacity="0.5"/>
    <rect x="24" y="40" width="10" height="10" rx="1" fill="#34d399" opacity="0.95"/>
    <rect x="36" y="40" width="10" height="10" rx="1" fill="#10b981" opacity="0.45"/>
    <rect x="48" y="40" width="10" height="10" rx="1" fill="#34d399" opacity="0.75"/>
    <rect x="0" y="52" width="10" height="10" rx="1" fill="#059669" opacity="0.3"/>
    <rect x="12" y="52" width="10" height="10" rx="1" fill="#34d399" opacity="0.8"/>
    <rect x="24" y="52" width="10" height="10" rx="1" fill="#10b981" opacity="0.45"/>
    <rect x="36" y="52" width="10" height="10" rx="1" fill="#34d399" opacity="0.9"/>
    <rect x="48" y="52" width="10" height="10" rx="1" fill="#10b981" opacity="0.5"/>
    <rect x="0" y="64" width="10" height="10" rx="1" fill="#34d399" opacity="0.6"/>
    <rect x="12" y="64" width="10" height="10" rx="1" fill="#059669" opacity="0.35"/>
    <rect x="24" y="64" width="10" height="10" rx="1" fill="#34d399" opacity="0.75"/>
    <rect x="36" y="64" width="10" height="10" rx="1" fill="#10b981" opacity="0.4"/>
    <rect x="48" y="64" width="10" height="10" rx="1" fill="#34d399" opacity="0.85"/>
  </g>
</svg>